<?xml version="1.0" standalone="no"?>
<!DOCTYPE svg PUBLIC "-//W3C//DTD SVG 20010904//EN"
 "http://www.w3.org/TR/2001/REC-SVG-20010904/DTD/svg10.dtd">
<svg version="1.0" xmlns="http://www.w3.org/2000/svg"
 width="200.000000pt" height="32.000000pt" viewBox="0 0 200.000000 32.000000"
 preserveAspectRatio="xMidYMid meet">

<g transform="translate(0.000000,32.000000) scale(0.100000,-0.100000)"
fill="#000000" stroke="none">
<path d="M58 272 c-24 -14 -28 -23 -28 -62 1 -86 64 -180 122 -180 35 0 64 43
74 109 7 49 -9 130 -29 143 -22 14 -111 8 -139 -10z m149 -58 c3 -8 -9 -12
-31 -12 -20 0 -36 4 -36 8 0 21 61 24 67 4z m-97 -11 c0 -10 -52 -35 -58 -28
-2 2 -2 11 1 20 6 15 57 22 57 8z m93 -70 c-11 -32 -36 -53 -60 -53 -30 0 -59
15 -66 33 -4 11 4 13 36 10 28 -3 49 0 62 11 26 20 36 20 28 -1z"/>
<path d="M230 278 c0 -7 7 -25 14 -40 9 -17 13 -41 9 -62 -5 -32 -3 -36 23
-41 49 -11 54 -14 54 -30 0 -12 -4 -14 -19 -5 -38 20 -66 12 -79 -22 -9 -25
-9 -34 1 -40 15 -9 40 -10 62 -2 27 11 72 86 84 142 15 71 15 70 -21 92 -38
23 -128 28 -128 8z m137 -84 c3 -8 -9 -12 -31 -12 -35 0 -44 7 -29 22 11 10
56 3 60 -10z"/>
<path d="M450 270 c0 -5 16 -10 35 -10 l35 0 0 -90 c0 -53 4 -90 10 -90 6 0
10 37 10 90 l0 90 35 0 c19 0 35 5 35 10 0 6 -33 10 -80 10 -47 0 -80 -4 -80
-10z"/>
<path d="M650 180 c0 -110 16 -138 22 -37 4 79 -1 137 -13 137 -5 0 -9 -45 -9
-100z"/>
<path d="M1181 248 c0 -14 -7 -29 -13 -31 -10 -4 -10 -6 0 -6 8 -1 12 -20 12
-61 0 -45 4 -62 15 -67 23 -8 33 7 12 18 -25 14 -25 106 1 112 15 4 15 5 0 6
-10 1 -18 12 -21 29 l-4 27 -2 -27z"/>
<path d="M1619 235 c-33 -18 -41 -38 -33 -82 11 -57 73 -83 107 -45 27 29 20
38 -9 11 -23 -22 -27 -23 -52 -8 -22 12 -28 23 -30 56 -3 36 1 44 22 59 24 15
28 15 51 0 14 -9 25 -12 25 -6 0 6 -12 15 -26 20 -30 12 -23 12 -55 -5z"/>
<path d="M700 220 c-12 -8 -9 -10 11 -10 32 0 39 -15 39 -81 0 -30 4 -49 11
-49 20 0 4 122 -17 137 -21 15 -24 16 -44 3z"/>
<path d="M846 209 c-50 -39 -23 -129 38 -129 24 0 62 27 52 37 -3 3 -12 -2
-21 -11 -9 -9 -21 -16 -26 -16 -23 0 -49 22 -49 40 0 17 7 20 54 20 l55 0 -11
31 c-6 17 -21 34 -35 40 -31 11 -26 12 -57 -12z m74 -18 c15 -30 14 -31 -35
-31 -37 0 -45 3 -45 18 0 25 9 32 41 32 18 0 32 -7 39 -19z"/>
<path d="M1023 220 c-23 -9 -32 -30 -13 -30 6 0 10 5 10 10 0 6 16 10 35 10
28 0 35 -4 35 -19 0 -20 -18 -31 -50 -31 -22 0 -50 -26 -50 -46 0 -24 46 -39
77 -25 19 9 29 9 31 2 10 -30 17 -4 14 51 -4 82 -28 102 -89 78z m51 -117
c-27 -20 -58 -12 -62 14 -3 17 3 24 25 29 15 3 33 7 38 8 18 5 17 -38 -1 -51z"/>
<path d="M1300 215 c-11 -13 -15 -13 -21 -3 -5 7 -8 -19 -7 -62 1 -74 1 -74 7
-20 7 61 15 80 37 80 8 0 14 5 14 10 0 15 -16 12 -30 -5z"/>
<path d="M1397 209 c-51 -39 -25 -129 37 -129 24 0 62 27 52 37 -3 3 -12 -2
-21 -11 -9 -9 -21 -16 -26 -16 -23 0 -49 22 -49 40 0 17 7 20 54 20 51 0 53 1
49 25 -10 48 -58 65 -96 34z m71 -11 c25 -25 13 -38 -33 -38 -45 0 -50 5 -39
34 7 19 55 21 72 4z"/>
<path d="M1821 218 c-1 -10 -7 -18 -13 -18 -10 0 -10 -2 -1 -8 6 -4 13 -27 15
-51 2 -26 8 -46 16 -47 7 -1 8 0 2 3 -15 7 -13 93 3 93 8 0 9 3 1 8 -6 4 -14
14 -17 22 -4 12 -6 11 -6 -2z"/>
<path d="M1750 145 c0 -30 5 -55 10 -55 6 0 10 25 10 55 0 30 -4 55 -10 55 -5
0 -10 -25 -10 -55z"/>
<path d="M1880 197 c0 -3 9 -29 20 -57 24 -61 24 -55 4 -74 -8 -9 -11 -16 -5
-16 25 0 30 38 12 89 -16 46 -31 74 -31 58z"/>
<path d="M1943 158 c-16 -58 -9 -60 10 -4 9 26 12 46 8 46 -4 0 -12 -19 -18
-42z"/>
</g>
</svg>
